<svg width="93" height="59" viewBox="0 0 93 59" fill="none" xmlns="http://www.w3.org/2000/svg">
<g clip-path="url(#clip0_256_21570)">
<path d="M93 4.81326V54.1886C93 56.841 90.8405 59.0019 88.1733 59.0019H4.8267C2.16132 59.0019 0 56.8428 0 54.1886V4.81326C0 2.15345 2.15946 0 4.8267 0H88.1733C90.8387 0 93 2.15345 93 4.81326Z" fill="white"/>
<path d="M42.5906 0L11.2105 59H7.45703L38.8371 0H42.5906Z" fill="#30B6E1"/>
<path d="M40.3025 21.7441C39.233 18.615 35.8087 16.942 32.6746 18.0104C30.6882 18.6874 27.0928 22.321 25.0282 24.5412C22.9636 22.321 19.3663 18.6874 17.3799 18.0104C15.8621 17.4929 14.2309 17.5949 12.7912 18.3016C11.3497 19.0064 10.2709 20.2306 9.752 21.7441C8.6825 24.8732 10.3621 28.2842 13.4962 29.3507C14.0914 29.5566 14.9674 29.6364 15.9793 29.6364C17.9081 29.6364 20.3335 29.3452 22.3014 29.0484L15.3915 32.9472L18.334 33.1457L16.9893 35.7628L25.0263 31.2278L33.0634 35.7628L31.7186 33.1457L34.6611 32.9472L27.7512 29.0484C29.7172 29.3452 32.1445 29.6364 34.0715 29.6364C35.0833 29.6364 35.9594 29.5566 36.5546 29.3507C39.6924 28.2842 41.372 24.8732 40.2988 21.7441H40.3025ZM27.6471 26.0547C29.9032 23.6768 32.5556 21.1561 33.627 20.7907C35.2247 20.2473 36.9675 21.1023 37.5125 22.6938C37.7785 23.4672 37.7245 24.2926 37.3618 25.0253C37.0029 25.7579 36.3779 26.3051 35.6041 26.5685C34.5346 26.9339 30.8928 26.5592 27.6452 26.0547H27.6471ZM12.6927 25.0253C12.3337 24.2926 12.2797 23.4672 12.542 22.6938C12.9754 21.4269 14.1695 20.6275 15.4436 20.6275C15.771 20.6275 16.102 20.6813 16.4275 20.7926C17.497 21.158 20.1513 23.6768 22.4074 26.0566C18.9367 26.5982 15.4306 26.9061 14.4485 26.5704C13.6766 26.3051 13.0516 25.7579 12.6908 25.0271L12.6927 25.0253Z" fill="#30B6E1"/>
<path d="M63.826 17.168C65.062 17.168 66.106 16.688 66.706 16.1V12.092H63.55V13.544H65.122V15.296C64.87 15.512 64.438 15.632 64.006 15.632C62.266 15.632 61.378 14.468 61.378 12.536C61.378 10.628 62.41 9.476 63.886 9.476C64.69 9.476 65.194 9.8 65.626 10.22L66.574 9.092C65.998 8.504 65.11 7.952 63.826 7.952C61.462 7.952 59.566 9.668 59.566 12.596C59.566 15.56 61.402 17.168 63.826 17.168ZM68.6115 17H70.3875V8.12H68.6115V17ZM72.5725 17H74.3485V13.4H77.5045V11.912H74.3485V9.596H78.0445V8.12H72.5725V17ZM81.356 17H83.132V9.596H85.652V8.12H78.86V9.596H81.356V17ZM50.7584 25.084C51.3344 25.084 51.8084 24.856 52.1744 24.43L51.7064 23.878C51.4664 24.136 51.1664 24.316 50.7884 24.316C50.0864 24.316 49.6304 23.734 49.6304 22.768C49.6304 21.814 50.1344 21.238 50.8064 21.238C51.1424 21.238 51.4004 21.394 51.6224 21.61L52.0904 21.046C51.8024 20.746 51.3524 20.476 50.7884 20.476C49.6664 20.476 48.7244 21.334 48.7244 22.798C48.7244 24.28 49.6364 25.084 50.7584 25.084ZM52.8898 25H55.6798V24.256H53.7778V23.068H55.3378V22.324H53.7778V21.298H55.6138V20.56H52.8898V25ZM57.4692 21.262H58.0452C58.6152 21.262 58.9272 21.424 58.9272 21.904C58.9272 22.378 58.6152 22.618 58.0452 22.618H57.4692V21.262ZM59.9892 25L58.9512 23.182C59.4612 22.984 59.7972 22.57 59.7972 21.904C59.7972 20.884 59.0592 20.56 58.1292 20.56H56.5812V25H57.4692V23.32H58.0872L58.9992 25H59.9892ZM61.4417 25H62.3297V21.298H63.5897V20.56H60.1937V21.298H61.4417V25ZM64.3097 25H65.1977V20.56H64.3097V25ZM66.2901 25H67.1781V23.2H68.7561V22.456H67.1781V21.298H69.0261V20.56H66.2901V25ZM69.7999 25H70.6879V20.56H69.7999V25ZM73.5924 25.084C74.1684 25.084 74.6424 24.856 75.0084 24.43L74.5404 23.878C74.3004 24.136 74.0004 24.316 73.6224 24.316C72.9204 24.316 72.4644 23.734 72.4644 22.768C72.4644 21.814 72.9684 21.238 73.6404 21.238C73.9764 21.238 74.2344 21.394 74.4564 21.61L74.9244 21.046C74.6364 20.746 74.1864 20.476 73.6224 20.476C72.5004 20.476 71.5584 21.334 71.5584 22.798C71.5584 24.28 72.4704 25.084 73.5924 25.084ZM76.5577 23.17L76.6897 22.684C76.8217 22.222 76.9537 21.718 77.0677 21.232H77.0917C77.2237 21.712 77.3437 22.222 77.4817 22.684L77.6137 23.17H76.5577ZM78.1177 25H79.0477L77.6197 20.56H76.5757L75.1537 25H76.0537L76.3657 23.86H77.8057L78.1177 25ZM79.9866 25H80.8746V21.298H82.1346V20.56H78.7386V21.298H79.9866V25ZM82.8546 25H85.6446V24.256H83.7426V23.068H85.3026V22.324H83.7426V21.298H85.5786V20.56H82.8546V25Z" fill="#30B6E1"/>
</g>
<defs>
<clipPath id="clip0_256_21570">
<rect width="93" height="59" fill="white"/>
</clipPath>
</defs>
</svg>
