<svg width="165" height="33" viewBox="0 0 165 33" fill="none" xmlns="http://www.w3.org/2000/svg">
<g clip-path="url(#clip0_693_27290)">
<path d="M28.967 25.7903C24.3959 25.7903 20.6733 22.0709 20.6733 17.4966C20.6733 16.109 21.0178 14.8043 21.6239 13.6527C20.6573 13.4996 19.7769 13.0754 19.072 12.4565V26.1826C19.072 29.1077 17.1899 31.5959 14.5742 32.5145C15.142 32.5751 15.7194 32.607 16.3031 32.607C21.7674 32.607 26.6033 29.9148 29.5603 25.7871H28.967V25.7903Z" fill="#0887C9"/>
<path d="M17.3243 26.1858V18.294C16.4279 19.0787 15.2572 19.5572 13.9717 19.5572C11.1582 19.5572 8.87107 17.2668 8.87107 14.4566C8.87107 11.6431 11.1582 9.35593 13.9717 9.35593C15.254 9.35593 16.4247 9.83442 17.3243 10.6191V8.45958H17.3306C17.4168 5.72265 19.6656 3.52163 22.4249 3.52163C22.9066 3.52163 23.2989 3.91399 23.2989 4.39566C23.2989 4.88052 22.9066 5.27288 22.4249 5.27288C20.5779 5.27288 19.0723 6.77532 19.0723 8.62226C19.0723 10.4692 20.5748 11.9748 22.4249 11.9748C22.5397 11.9748 22.645 11.9972 22.7439 12.0354C24.2655 10.3065 26.4888 9.20601 28.9673 9.20601C29.4522 9.20601 29.8446 9.59836 29.8446 10.08C29.8446 10.5649 29.4522 10.9541 28.9673 10.9541C25.3596 10.9541 22.4249 13.8888 22.4249 17.4965C22.4249 21.1043 25.3596 24.039 28.9673 24.039H30.6612C31.9052 21.7391 32.6102 19.1042 32.6102 16.3035C32.6102 7.29846 25.3117 0 16.3067 0C11.6431 0 7.43881 1.96178 4.46584 5.10063V12.4278L10.8201 6.07354C11.1614 5.73222 11.7164 5.73222 12.0578 6.07354C12.3991 6.41486 12.3991 6.9699 12.0578 7.31122L4.82949 14.5395L12.0578 21.7678C12.3991 22.1091 12.3991 22.6641 12.0578 23.0055C11.8887 23.1745 11.6622 23.2606 11.4389 23.2606C11.2156 23.2606 10.9892 23.1745 10.8201 23.0055L4.46584 16.6544V22.3898C4.46584 22.8715 4.07348 23.2638 3.59181 23.2638C3.11014 23.2638 2.71778 22.8715 2.71778 22.3898V7.29846C1.00162 9.87907 0 12.9733 0 16.3067C0 22.9098 3.92675 28.5878 9.56647 31.1524H12.3576C15.0945 31.1524 17.3243 28.9259 17.3243 26.1858Z" fill="#0887C9"/>
<path d="M13.9714 11.104C12.1245 11.104 10.6221 12.6064 10.6221 14.4566C10.6221 16.3035 12.1245 17.806 13.9714 17.806C15.8184 17.806 17.324 16.3035 17.324 14.4566C17.324 12.6096 15.8184 11.104 13.9714 11.104Z" fill="#0887C9"/>
<path d="M2.71484 22.3866C2.71484 22.8682 3.1072 23.2606 3.58887 23.2606C4.07054 23.2606 4.4629 22.8682 4.4629 22.3866V16.6543L10.8172 23.0086C10.9862 23.1777 11.2127 23.2638 11.436 23.2638C11.6593 23.2638 11.8858 23.1777 12.0548 23.0086C12.3961 22.6673 12.3961 22.1122 12.0548 21.7709L4.82974 14.5395L12.058 7.31118C12.3993 6.96986 12.3993 6.41482 12.058 6.0735C11.7167 5.73218 11.1617 5.73218 10.8203 6.0735L4.46609 12.4278V5.10059C3.82173 5.78003 3.2348 6.5137 2.71484 7.29842V22.3866Z" fill="white"/>
<path d="M19.0723 26.1858V12.4598C19.7773 13.0786 20.6577 13.5029 21.6243 13.656C21.0182 14.8043 20.6737 16.1122 20.6737 17.4998C20.6737 22.0741 24.3931 25.7935 28.9674 25.7935H29.5639C29.9658 25.2353 30.3326 24.6515 30.6612 24.0422H28.9674C25.3596 24.0422 22.4249 21.1075 22.4249 17.4998C22.4249 13.892 25.3596 10.9573 28.9674 10.9573C29.4522 10.9573 29.8446 10.565 29.8446 10.0833C29.8446 9.60163 29.4522 9.20928 28.9674 9.20928C26.4888 9.20928 24.2655 10.3098 22.7439 12.0387C22.645 12.0004 22.5398 11.9781 22.4249 11.9781C20.578 11.9781 19.0723 10.4757 19.0723 8.62553C19.0723 6.77859 20.5748 5.27615 22.4249 5.27615C22.9066 5.27615 23.2989 4.88379 23.2989 4.39893C23.2989 3.91726 22.9066 3.5249 22.4249 3.5249C19.6657 3.5249 17.4168 5.72592 17.3307 8.46284H17.3243V10.6224C16.4279 9.83768 15.2572 9.3592 13.9717 9.3592C11.1582 9.3592 8.87109 11.6495 8.87109 14.4598C8.87109 17.2733 11.1582 19.5605 13.9717 19.5605C15.2541 19.5605 16.4247 19.082 17.3243 18.2973V26.189C17.3243 28.926 15.0978 31.1557 12.3576 31.1557H9.56649C11.12 31.8638 12.8042 32.3359 14.5746 32.521C17.1903 31.5991 19.0723 29.111 19.0723 26.1858ZM13.9717 17.806C12.1248 17.806 10.6223 16.3036 10.6223 14.4566C10.6223 12.6097 12.1248 11.1041 13.9717 11.1041C15.8187 11.1041 17.3243 12.6065 17.3243 14.4566C17.3243 16.3036 15.8187 17.806 13.9717 17.806Z" fill="white"/>
<path d="M39.3727 25.3625L42.033 22.8521C42.0681 22.817 42.1128 22.7979 42.167 22.7979H42.8369C42.8624 22.7979 42.8816 22.8074 42.8879 22.8266C42.8943 22.8457 42.8879 22.8649 42.8688 22.8872L40.0202 25.5188L42.923 28.3291C42.9454 28.3483 42.9517 28.3706 42.9422 28.3865C42.9358 28.4057 42.9166 28.4153 42.8911 28.4153H42.2212C42.1638 28.4153 42.1192 28.3961 42.0873 28.3578L39.3727 25.6847V28.3515C39.3727 28.3929 39.3504 28.4153 39.3089 28.4153H38.8304C38.7889 28.4153 38.7666 28.3929 38.7666 28.3515V22.8585C38.7666 22.817 38.7889 22.7947 38.8304 22.7947H39.3089C39.3504 22.7947 39.3727 22.817 39.3727 22.8585V25.3625V25.3625Z" fill="black"/>
<path d="M45.9122 28.4919C45.4879 28.4919 45.1019 28.4186 44.7542 28.2686C44.4097 28.1187 44.1131 27.9146 43.8643 27.6562C43.6186 27.3946 43.4273 27.0916 43.2901 26.7407C43.1529 26.3898 43.0859 26.0134 43.0859 25.6083C43.0859 25.2032 43.1529 24.8267 43.2901 24.4759C43.4273 24.125 43.6186 23.8187 43.8643 23.5604C44.1099 23.302 44.4065 23.0978 44.7542 22.9479C45.1019 22.798 45.4847 22.7246 45.9122 22.7246C46.3364 22.7246 46.7224 22.798 47.0701 22.9479C47.4178 23.0978 47.7113 23.302 47.9601 23.5604C48.2057 23.8187 48.3971 24.125 48.5343 24.4759C48.6714 24.8267 48.7384 25.2063 48.7384 25.6083C48.7384 26.0134 48.6714 26.3898 48.5343 26.7407C48.3971 27.0916 48.2057 27.3978 47.9601 27.6562C47.7145 27.9146 47.4178 28.1219 47.0701 28.2686C46.7224 28.4186 46.3364 28.4919 45.9122 28.4919ZM45.9122 27.972C46.2535 27.972 46.5629 27.9114 46.8372 27.787C47.1116 27.6657 47.3476 27.4935 47.539 27.2798C47.7304 27.066 47.8771 26.814 47.9792 26.527C48.0813 26.2431 48.1323 25.9336 48.1323 25.6019C48.1323 25.2701 48.0813 24.9639 47.9792 24.6768C47.8771 24.3929 47.7304 24.1409 47.539 23.924C47.3476 23.7103 47.1148 23.538 46.8372 23.4168C46.5629 23.2924 46.2535 23.2318 45.9122 23.2318C45.5709 23.2318 45.2646 23.2924 44.9871 23.4168C44.7128 23.538 44.4767 23.7103 44.2885 23.924C44.0971 24.1377 43.9504 24.3897 43.8483 24.6768C43.7462 24.9639 43.6952 25.2701 43.6952 25.6019C43.6952 25.9304 43.7462 26.2399 43.8483 26.527C43.9504 26.814 44.0971 27.0629 44.2885 27.2798C44.4799 27.4935 44.7128 27.6657 44.9871 27.787C45.2646 27.9114 45.5709 27.972 45.9122 27.972Z" fill="black"/>
<path d="M51.469 22.7947C51.8263 22.7947 52.1229 22.8489 52.3622 22.951C52.6014 23.0562 52.7896 23.1902 52.9332 23.3561C53.0735 23.522 53.1756 23.7038 53.2362 23.9079C53.2968 24.1089 53.3255 24.3067 53.3255 24.5013C53.3255 24.6321 53.3064 24.7756 53.2681 24.9351C53.2298 25.0914 53.1565 25.2445 53.0544 25.3944C52.9523 25.5444 52.8151 25.6783 52.6461 25.7964C52.477 25.9144 52.2601 25.9973 51.9985 26.0452L53.3447 28.3355C53.3542 28.3546 53.3574 28.3738 53.3479 28.3929C53.3415 28.4089 53.3223 28.4153 53.2968 28.4153H52.8247C52.7769 28.4153 52.7418 28.3961 52.7226 28.3578L51.3861 26.0771H50.276V28.3515C50.276 28.3929 50.2537 28.4153 50.2122 28.4153H49.7337C49.6923 28.4153 49.6699 28.3929 49.6699 28.3515V22.8585C49.6699 22.817 49.6923 22.7947 49.7337 22.7947H51.469ZM50.2728 23.3146V25.5571H51.5232C51.8869 25.5571 52.174 25.471 52.3941 25.3019C52.611 25.1297 52.7195 24.8649 52.7195 24.5045C52.7195 24.1153 52.6078 23.8218 52.3845 23.6177C52.1612 23.4167 51.8709 23.3146 51.5137 23.3146H50.2728Z" fill="black"/>
<path d="M54.2539 28.3515V22.8585C54.2539 22.817 54.2762 22.7947 54.3177 22.7947H57.7181C57.7596 22.7947 57.7819 22.817 57.7819 22.8585V23.2508C57.7819 23.2923 57.7596 23.3146 57.7181 23.3146H54.8632V25.2955H57.6256C57.6671 25.2955 57.6894 25.3179 57.6894 25.3593V25.7517C57.6894 25.7932 57.6671 25.8155 57.6256 25.8155H54.8632V27.8921H57.766C57.8074 27.8921 57.8298 27.9113 57.8298 27.9559V28.3483C57.8298 28.3897 57.8074 28.4121 57.766 28.4121H54.3209C54.273 28.4153 54.2539 28.3929 54.2539 28.3515Z" fill="black"/>
<path d="M62.4039 26.8873H59.635L59.013 28.3578C58.9971 28.3961 58.9684 28.4153 58.9269 28.4153H58.4324C58.375 28.4153 58.3559 28.3865 58.3782 28.3355L60.7228 22.8585C60.7387 22.817 60.7643 22.7947 60.8025 22.7947H61.2427C61.281 22.7947 61.3065 22.817 61.3225 22.8585L63.6671 28.3419C63.6862 28.3897 63.6671 28.4121 63.6128 28.4121H63.1184C63.0769 28.4121 63.0482 28.3929 63.0323 28.3546L62.4039 26.8873ZM59.8551 26.3674H62.1838L61.0194 23.6209L59.8551 26.3674Z" fill="black"/>
<path d="M67.5201 25.6051C67.5201 25.9464 67.5807 26.2622 67.6988 26.5525C67.8168 26.8428 67.9795 27.0948 68.19 27.3021C68.4005 27.5126 68.6462 27.6753 68.9301 27.7934C69.214 27.9114 69.5202 27.9688 69.8519 27.9688C70.155 27.9688 70.4325 27.9146 70.6845 27.8093C70.9365 27.7008 71.1534 27.5669 71.3384 27.4042C71.5203 27.2415 71.6702 27.0629 71.7882 26.8683C71.903 26.6737 71.9796 26.4887 72.0179 26.3101C72.0274 26.2622 72.0306 26.2367 72.0243 26.2271C72.0179 26.2207 71.9956 26.2175 71.9541 26.2175H69.7435C69.702 26.2175 69.6797 26.1952 69.6797 26.1538V25.7614C69.6797 25.7199 69.6988 25.6976 69.7435 25.6976H72.5027C72.5761 25.6976 72.6208 25.704 72.6335 25.7167C72.6463 25.7295 72.6527 25.7742 72.6527 25.8475V25.9336C72.6527 26.2112 72.5889 26.5014 72.4645 26.8045C72.3369 27.1075 72.155 27.3819 71.9126 27.6307C71.6702 27.8795 71.3767 28.0868 71.0258 28.2495C70.6781 28.4122 70.2794 28.4919 69.836 28.4919C69.4181 28.4919 69.029 28.4186 68.6749 28.2686C68.3208 28.1187 68.0114 27.9146 67.7498 27.6562C67.4882 27.3946 67.2841 27.0916 67.1342 26.7407C66.9874 26.3898 66.9141 26.0134 66.9141 25.6083C66.9141 25.2 66.9874 24.8172 67.1342 24.4663C67.2841 24.1154 67.4882 23.8092 67.7498 23.5508C68.0114 23.2892 68.324 23.0851 68.6813 22.9415C69.0417 22.7948 69.4341 22.7214 69.8583 22.7214C70.1103 22.7214 70.3496 22.7533 70.5729 22.8108C70.7993 22.8714 71.0067 22.9511 71.2013 23.05C71.3959 23.1489 71.5681 23.2637 71.7212 23.3977C71.8743 23.5285 71.9987 23.6625 72.0976 23.7996C72.1231 23.8379 72.1168 23.8698 72.0753 23.8953L71.7212 24.1314C71.6797 24.1569 71.6447 24.1537 71.6191 24.1154C71.5617 24.0261 71.4756 23.9304 71.3671 23.8283C71.2555 23.7262 71.1247 23.6306 70.9748 23.5444C70.8217 23.4583 70.6494 23.3849 70.458 23.3275C70.2666 23.2701 70.0561 23.2414 69.8328 23.2414C69.5138 23.2414 69.2108 23.2988 68.9301 23.4136C68.6494 23.5285 68.4037 23.6912 68.1932 23.9017C67.9827 24.1122 67.82 24.361 67.6988 24.6545C67.5807 24.9416 67.5201 25.2574 67.5201 25.6051Z" fill="black"/>
<path d="M74.1298 28.3515C74.1298 28.3929 74.1074 28.4153 74.066 28.4153H73.5843C73.5428 28.4153 73.5205 28.3929 73.5205 28.3515V22.8585C73.5205 22.817 73.5428 22.7947 73.5843 22.7947H74.066C74.1074 22.7947 74.1298 22.817 74.1298 22.8585V28.3515Z" fill="black"/>
<path d="M75.9762 28.3515C75.9762 28.3929 75.9571 28.4153 75.9124 28.4153H75.4339C75.3924 28.4153 75.3701 28.3929 75.3701 28.3515V22.8585C75.3701 22.817 75.3924 22.7947 75.4339 22.7947H78.7004C78.7418 22.7947 78.7642 22.817 78.7642 22.8585V23.2508C78.7642 23.2923 78.745 23.3146 78.7004 23.3146H75.9794V25.3051H78.6302C78.6716 25.3051 78.694 25.3274 78.694 25.3689V25.7613C78.694 25.8027 78.6748 25.8251 78.6302 25.8251H75.9794V28.3515H75.9762Z" fill="black"/>
<path d="M81.6101 23.3146V28.3515C81.6101 28.3929 81.5878 28.4153 81.5463 28.4153H81.0647C81.0232 28.4153 81.0009 28.3929 81.0009 28.3515V23.3146H79.2943C79.2528 23.3146 79.2305 23.2923 79.2305 23.2508V22.8585C79.2305 22.817 79.2528 22.7947 79.2943 22.7947H83.3167C83.3582 22.7947 83.3805 22.817 83.3805 22.8585V23.2508C83.3805 23.2923 83.3582 23.3146 83.3167 23.3146H81.6101Z" fill="black"/>
<path d="M91.4697 26.9193C91.4888 26.881 91.5207 26.8779 91.5622 26.9034L91.9322 27.1554C91.9673 27.1777 91.9768 27.2064 91.9545 27.2415C91.8652 27.3787 91.7472 27.519 91.6004 27.6658C91.4537 27.8125 91.2783 27.9497 91.0773 28.0709C90.8763 28.1953 90.6467 28.2942 90.3883 28.3739C90.1331 28.4537 89.8492 28.4919 89.5462 28.4919C89.1379 28.4919 88.7551 28.4186 88.3978 28.2718C88.0405 28.1251 87.7311 27.9241 87.4727 27.6658C87.2112 27.4106 87.007 27.1043 86.8571 26.7503C86.7072 26.3962 86.6338 26.0134 86.6338 25.6051C86.6338 25.2 86.7072 24.8236 86.8539 24.4727C87.0006 24.1218 87.2048 23.8156 87.4632 23.5572C87.7215 23.2988 88.031 23.0947 88.3914 22.9447C88.7519 22.7948 89.1442 22.7214 89.5685 22.7214C89.8301 22.7214 90.0789 22.7533 90.3181 22.8203C90.5574 22.8873 90.7775 22.9734 90.9816 23.0851C91.1826 23.1967 91.3612 23.3243 91.5207 23.4711C91.677 23.6178 91.811 23.7709 91.9131 23.9272C91.9386 23.9655 91.9322 23.9974 91.8907 24.0229L91.5366 24.2653C91.4952 24.294 91.4601 24.2877 91.4346 24.2494C91.3612 24.1346 91.2655 24.0165 91.1507 23.8985C91.0358 23.7805 90.8987 23.672 90.7424 23.5731C90.5829 23.4774 90.4074 23.3977 90.2065 23.3339C90.0087 23.2701 89.7886 23.2414 89.5462 23.2414C89.1857 23.2414 88.8603 23.3084 88.5796 23.4423C88.2957 23.5763 88.0565 23.755 87.8555 23.9751C87.6577 24.1984 87.5046 24.4504 87.3994 24.7343C87.2941 25.0182 87.2431 25.3084 87.2431 25.6083C87.2431 25.9081 87.2941 26.1984 87.3994 26.4823C87.5046 26.7662 87.6546 27.0182 87.8555 27.2415C88.0565 27.4648 88.2957 27.6434 88.5828 27.7774C88.8699 27.9114 89.1953 27.9784 89.5621 27.9784C89.7982 27.9784 90.0183 27.9465 90.2192 27.8795C90.4202 27.8157 90.6052 27.7296 90.7647 27.6275C90.9274 27.5254 91.0677 27.4138 91.1858 27.2894C91.3102 27.1618 91.4027 27.0405 91.4697 26.9193Z" fill="black"/>
<path d="M92.7617 28.3515V22.8585C92.7617 22.817 92.7809 22.7947 92.8255 22.7947H96.2227C96.2642 22.7947 96.2865 22.817 96.2865 22.8585V23.2508C96.2865 23.2923 96.2642 23.3146 96.2227 23.3146H93.3678V25.2955H96.1302C96.1717 25.2955 96.194 25.3179 96.194 25.3593V25.7517C96.194 25.7932 96.1717 25.8155 96.1302 25.8155H93.3678V27.8921H96.2706C96.3121 27.8921 96.3344 27.9113 96.3344 27.9559V28.3483C96.3344 28.3897 96.3121 28.4121 96.2706 28.4121H92.8255C92.7809 28.4153 92.7617 28.3929 92.7617 28.3515Z" fill="black"/>
<path d="M99.189 22.7947C99.5463 22.7947 99.8429 22.8489 100.082 22.951C100.321 23.0562 100.51 23.1902 100.653 23.3561C100.794 23.522 100.896 23.7038 100.956 23.9079C101.017 24.1089 101.046 24.3067 101.046 24.5013C101.046 24.6321 101.026 24.7756 100.985 24.9351C100.943 25.0914 100.873 25.2445 100.771 25.3944C100.669 25.5444 100.532 25.6783 100.363 25.7964C100.194 25.9144 99.9769 25.9973 99.7153 26.0452L101.061 28.3355C101.071 28.3546 101.074 28.3738 101.065 28.3929C101.058 28.4089 101.039 28.4153 101.014 28.4153H100.542C100.494 28.4153 100.462 28.3961 100.439 28.3578L99.1029 26.0771H97.9928V28.3515C97.9928 28.3929 97.9705 28.4153 97.929 28.4153H97.4505C97.4091 28.4153 97.3867 28.3929 97.3867 28.3515V22.8585C97.3867 22.817 97.4091 22.7947 97.4505 22.7947H99.189ZM97.9928 23.3146V25.5571H99.2432C99.6037 25.5571 99.894 25.471 100.111 25.3019C100.328 25.1297 100.436 24.8649 100.436 24.5045C100.436 24.1153 100.325 23.8218 100.101 23.6177C99.878 23.4167 99.5877 23.3146 99.2305 23.3146H97.9928Z" fill="black"/>
<path d="M103.856 23.3146V28.3515C103.856 28.3929 103.834 28.4153 103.792 28.4153H103.314C103.272 28.4153 103.25 28.3929 103.25 28.3515V23.3146H101.543C101.502 23.3146 101.479 23.2923 101.479 23.2508V22.8585C101.479 22.817 101.502 22.7947 101.543 22.7947H105.563C105.604 22.7947 105.623 22.817 105.623 22.8585V23.2508C105.623 23.2923 105.604 23.3146 105.563 23.3146H103.856Z" fill="black"/>
<path d="M106.979 28.3515C106.979 28.3929 106.957 28.4153 106.915 28.4153H106.437C106.395 28.4153 106.373 28.3929 106.373 28.3515V22.8585C106.373 22.817 106.395 22.7947 106.437 22.7947H106.915C106.957 22.7947 106.979 22.817 106.979 22.8585V28.3515Z" fill="black"/>
<path d="M108.829 28.3515C108.829 28.3929 108.81 28.4153 108.765 28.4153H108.284C108.242 28.4153 108.22 28.3929 108.22 28.3515V22.8585C108.22 22.817 108.242 22.7947 108.284 22.7947H111.55C111.591 22.7947 111.614 22.817 111.614 22.8585V23.2508C111.614 23.2923 111.595 23.3146 111.55 23.3146H108.829V25.3051H111.48C111.521 25.3051 111.544 25.3274 111.544 25.3689V25.7613C111.544 25.8027 111.521 25.8251 111.48 25.8251H108.829V28.3515V28.3515Z" fill="black"/>
<path d="M113.187 28.3515C113.187 28.3929 113.168 28.4153 113.123 28.4153H112.645C112.603 28.4153 112.581 28.3929 112.581 28.3515V22.8585C112.581 22.817 112.6 22.7947 112.645 22.7947H113.123C113.165 22.7947 113.187 22.817 113.187 22.8585V28.3515Z" fill="black"/>
<path d="M118.938 26.9193C118.961 26.881 118.993 26.8779 119.031 26.9034L119.401 27.1554C119.436 27.1777 119.446 27.2064 119.423 27.2415C119.334 27.3787 119.216 27.519 119.069 27.6658C118.922 27.8125 118.747 27.9497 118.546 28.0709C118.345 28.1953 118.115 28.2942 117.857 28.3739C117.599 28.4537 117.318 28.4919 117.015 28.4919C116.607 28.4919 116.224 28.4186 115.867 28.2718C115.509 28.1251 115.2 27.9241 114.941 27.6658C114.68 27.4106 114.476 27.1043 114.326 26.7503C114.176 26.3962 114.103 26.0134 114.103 25.6051C114.103 25.2 114.176 24.8236 114.323 24.4727C114.469 24.1218 114.674 23.8156 114.932 23.5572C115.19 23.2988 115.5 23.0947 115.86 22.9447C116.221 22.7948 116.613 22.7214 117.037 22.7214C117.299 22.7214 117.551 22.7533 117.79 22.8203C118.029 22.8873 118.246 22.9734 118.45 23.0851C118.651 23.1967 118.833 23.3243 118.989 23.4711C119.146 23.6178 119.28 23.7709 119.382 23.9272C119.407 23.9655 119.401 23.9974 119.359 24.0229L119.005 24.2653C118.964 24.294 118.929 24.2877 118.903 24.2494C118.83 24.1346 118.734 24.0165 118.619 23.8985C118.505 23.7805 118.367 23.672 118.211 23.5731C118.055 23.4774 117.876 23.3977 117.675 23.3339C117.477 23.2701 117.254 23.2414 117.015 23.2414C116.651 23.2414 116.329 23.3084 116.048 23.4423C115.764 23.5763 115.522 23.755 115.324 23.9751C115.126 24.1984 114.973 24.4504 114.868 24.7343C114.763 25.0182 114.712 25.3084 114.712 25.6083C114.712 25.9081 114.763 26.1984 114.868 26.4823C114.973 26.7662 115.123 27.0182 115.324 27.2415C115.525 27.4648 115.768 27.6434 116.052 27.7774C116.339 27.9114 116.664 27.9784 117.031 27.9784C117.267 27.9784 117.487 27.9465 117.688 27.8795C117.889 27.8157 118.074 27.7296 118.237 27.6275C118.399 27.5254 118.54 27.4138 118.658 27.2894C118.779 27.1618 118.871 27.0405 118.938 26.9193Z" fill="black"/>
<path d="M123.716 26.8873H120.948L120.326 28.3578C120.31 28.3961 120.281 28.4153 120.239 28.4153H119.745C119.688 28.4153 119.668 28.3865 119.691 28.3355L122.035 22.8585C122.051 22.817 122.077 22.7947 122.115 22.7947H122.555C122.594 22.7947 122.619 22.817 122.635 22.8585L124.98 28.3419C124.999 28.3897 124.983 28.4121 124.925 28.4121H124.428C124.386 28.4121 124.358 28.3929 124.342 28.3546L123.716 26.8873ZM121.168 26.3674H123.496L122.329 23.6209L121.168 26.3674Z" fill="black"/>
<path d="M127.005 23.3146V28.3515C127.005 28.3929 126.983 28.4153 126.942 28.4153H126.463C126.422 28.4153 126.399 28.3929 126.399 28.3515V23.3146H124.693C124.651 23.3146 124.629 23.2923 124.629 23.2508V22.8585C124.629 22.817 124.651 22.7947 124.693 22.7947H128.712C128.753 22.7947 128.776 22.817 128.776 22.8585V23.2508C128.776 23.2923 128.753 23.3146 128.712 23.3146H127.005Z" fill="black"/>
<path d="M136.862 26.9193C136.884 26.881 136.916 26.8779 136.957 26.9034L137.327 27.1554C137.366 27.1777 137.372 27.2064 137.35 27.2415C137.26 27.3787 137.142 27.519 136.996 27.6658C136.849 27.8125 136.674 27.9497 136.473 28.0709C136.272 28.1953 136.042 28.2942 135.784 28.3739C135.528 28.4537 135.244 28.4919 134.941 28.4919C134.53 28.4919 134.15 28.4186 133.793 28.2718C133.436 28.1251 133.13 27.9241 132.868 27.6658C132.61 27.4106 132.402 27.1043 132.256 26.7503C132.106 26.3962 132.032 26.0134 132.032 25.6051C132.032 25.2 132.106 24.8236 132.252 24.4727C132.399 24.1218 132.603 23.8156 132.862 23.5572C133.12 23.2988 133.433 23.0947 133.79 22.9447C134.15 22.7948 134.543 22.7214 134.967 22.7214C135.228 22.7214 135.477 22.7533 135.717 22.8203C135.956 22.8873 136.176 22.9734 136.377 23.0851C136.578 23.1967 136.76 23.3243 136.916 23.4711C137.072 23.6178 137.203 23.7709 137.308 23.9272C137.334 23.9655 137.327 23.9974 137.286 24.0229L136.932 24.2653C136.89 24.294 136.855 24.2877 136.83 24.2494C136.756 24.1346 136.661 24.0165 136.546 23.8985C136.431 23.7805 136.294 23.672 136.138 23.5731C135.981 23.4774 135.803 23.3977 135.602 23.3339C135.401 23.2701 135.181 23.2414 134.941 23.2414C134.578 23.2414 134.256 23.3084 133.972 23.4423C133.688 23.5763 133.449 23.755 133.248 23.9751C133.05 24.1984 132.897 24.4504 132.791 24.7343C132.686 25.0182 132.632 25.3084 132.632 25.6083C132.632 25.9081 132.683 26.1984 132.791 26.4823C132.897 26.7662 133.05 27.0182 133.248 27.2415C133.449 27.4648 133.691 27.6434 133.975 27.7774C134.259 27.9114 134.587 27.9784 134.954 27.9784C135.19 27.9784 135.407 27.9465 135.611 27.8795C135.815 27.8157 135.994 27.7296 136.157 27.6275C136.319 27.5254 136.46 27.4138 136.578 27.2894C136.702 27.1618 136.795 27.0405 136.862 26.9193Z" fill="black"/>
<path d="M138.76 25.2286H141.867V22.8585C141.867 22.817 141.889 22.7947 141.93 22.7947H142.409C142.45 22.7947 142.473 22.817 142.473 22.8585V28.3515C142.473 28.3929 142.45 28.4153 142.409 28.4153H141.93C141.889 28.4153 141.867 28.3929 141.867 28.3515V25.7453H138.76V28.3515C138.76 28.3929 138.737 28.4153 138.696 28.4153H138.214C138.173 28.4153 138.15 28.3929 138.15 28.3515V22.8585C138.15 22.817 138.17 22.7947 138.214 22.7947H138.696C138.737 22.7947 138.76 22.817 138.76 22.8585V25.2286Z" fill="black"/>
<path d="M147.242 26.8873H144.473L143.851 28.3578C143.835 28.3961 143.806 28.4153 143.765 28.4153H143.27C143.213 28.4153 143.194 28.3865 143.216 28.3355L145.561 22.8585C145.577 22.817 145.602 22.7947 145.64 22.7947H146.081C146.119 22.7947 146.144 22.817 146.16 22.8585L148.505 28.3419C148.524 28.3897 148.508 28.4121 148.451 28.4121H147.953C147.912 28.4121 147.883 28.3929 147.867 28.3546L147.242 26.8873ZM144.693 26.3674H147.022L145.857 23.6209L144.693 26.3674Z" fill="black"/>
<path d="M149.845 23.506V28.3515C149.845 28.3929 149.832 28.4153 149.807 28.4153H149.303C149.261 28.4153 149.242 28.3929 149.242 28.3515V22.8585C149.242 22.817 149.261 22.7947 149.303 22.7947H149.915C149.973 22.7947 150.014 22.817 150.04 22.8585L153.281 27.7039H153.287V22.8585C153.287 22.817 153.306 22.7947 153.351 22.7947H153.832C153.874 22.7947 153.893 22.817 153.893 22.8585V28.3515C153.893 28.3929 153.871 28.4153 153.832 28.4153H153.217C153.159 28.4153 153.118 28.3929 153.092 28.3515L149.851 23.506H149.845Z" fill="black"/>
<path d="M155.424 25.6051C155.424 25.9464 155.485 26.2622 155.603 26.5525C155.721 26.8428 155.884 27.0948 156.094 27.3021C156.305 27.5126 156.55 27.6753 156.834 27.7934C157.118 27.9114 157.424 27.9688 157.753 27.9688C158.059 27.9688 158.337 27.9146 158.589 27.8093C158.841 27.7008 159.057 27.5669 159.242 27.4042C159.424 27.2415 159.574 27.0629 159.689 26.8683C159.804 26.6737 159.88 26.4887 159.919 26.3101C159.928 26.2622 159.931 26.2367 159.925 26.2271C159.919 26.2207 159.896 26.2175 159.855 26.2175H157.644C157.603 26.2175 157.581 26.1952 157.581 26.1538V25.7614C157.581 25.7199 157.6 25.6976 157.644 25.6976H160.407C160.48 25.6976 160.522 25.704 160.538 25.7167C160.55 25.7295 160.557 25.7742 160.557 25.8475V25.9336C160.557 26.2112 160.493 26.5014 160.368 26.8045C160.244 27.1075 160.059 27.3819 159.817 27.6307C159.574 27.8795 159.281 28.0868 158.93 28.2495C158.582 28.4122 158.183 28.4919 157.74 28.4919C157.319 28.4919 156.933 28.4186 156.579 28.2686C156.225 28.1187 155.915 27.9146 155.654 27.6562C155.392 27.3946 155.188 27.0916 155.041 26.7407C154.895 26.3898 154.821 26.0134 154.821 25.6083C154.821 25.2 154.895 24.8172 155.041 24.4663C155.188 24.1154 155.392 23.8092 155.654 23.5508C155.915 23.2892 156.228 23.0851 156.588 22.9415C156.949 22.7948 157.341 22.7214 157.766 22.7214C158.018 22.7214 158.257 22.7533 158.48 22.8108C158.707 22.8714 158.917 22.9511 159.112 23.05C159.306 23.1489 159.479 23.2637 159.632 23.3977C159.785 23.5285 159.909 23.6625 160.011 23.7996C160.037 23.8379 160.027 23.8698 159.986 23.8953L159.632 24.1314C159.59 24.1569 159.555 24.1537 159.53 24.1154C159.472 24.0261 159.389 23.9304 159.278 23.8283C159.166 23.7262 159.038 23.6306 158.885 23.5444C158.732 23.4583 158.56 23.3849 158.368 23.3275C158.177 23.2701 157.97 23.2414 157.743 23.2414C157.424 23.2414 157.121 23.2988 156.84 23.4136C156.56 23.5285 156.314 23.6912 156.104 23.9017C155.893 24.1122 155.727 24.361 155.609 24.6545C155.485 24.9416 155.424 25.2574 155.424 25.6051Z" fill="black"/>
<path d="M161.431 28.3515V22.8585C161.431 22.817 161.45 22.7947 161.494 22.7947H164.895C164.936 22.7947 164.959 22.817 164.959 22.8585V23.2508C164.959 23.2923 164.936 23.3146 164.895 23.3146H162.04V25.2955H164.802C164.844 25.2955 164.866 25.3179 164.866 25.3593V25.7517C164.866 25.7932 164.847 25.8155 164.802 25.8155H162.04V27.8921H164.943C164.984 27.8921 165.007 27.9113 165.007 27.9559V28.3483C165.007 28.3897 164.984 28.4121 164.943 28.4121H161.498C161.45 28.4153 161.431 28.3929 161.431 28.3515Z" fill="black"/>
<path d="M42.071 11.5564C41.6404 11.5564 41.2384 11.483 40.8716 11.3363C40.5048 11.1895 40.1858 10.9886 39.9146 10.7302C39.6435 10.4718 39.433 10.1656 39.2767 9.81469C39.1204 9.46381 39.0406 9.08421 39.0406 8.67272C39.0406 8.22932 39.1235 7.8274 39.2926 7.46694C39.4585 7.10648 39.6882 6.79387 39.9816 6.53549H37.9911C37.905 6.53549 37.8604 6.49402 37.8604 6.4079V5.70612C37.8604 5.62 37.905 5.57853 37.9911 5.57853H41.4713V4.33128C41.4713 4.24516 41.5128 4.20369 41.6021 4.20369H42.5399C42.626 4.20369 42.6707 4.24835 42.6707 4.33128V5.57853H46.0392C46.1253 5.57853 46.17 5.62 46.17 5.70612V6.4079C46.17 6.49402 46.1285 6.53549 46.0392 6.53549L44.1444 6.55144C44.4347 6.80982 44.6676 7.11924 44.8398 7.4797C45.0121 7.84016 45.0982 8.24208 45.0982 8.68229C45.0982 9.09059 45.0185 9.47019 44.8621 9.81788C44.7058 10.1688 44.4921 10.4718 44.221 10.7302C43.9498 10.9886 43.634 11.1895 43.264 11.3363C42.9036 11.483 42.5016 11.5564 42.071 11.5564ZM38.7695 12.6569C38.7695 12.5708 38.8141 12.5261 38.9003 12.5261H39.8381C39.9242 12.5261 39.9689 12.5708 39.9689 12.6569V16.0573C39.9689 16.1434 39.9784 16.1977 40.0008 16.22C40.0231 16.2423 40.0773 16.2519 40.1634 16.2519H50.5752C50.6614 16.2519 50.7028 16.2965 50.7028 16.3827V17.1291C50.7028 17.2152 50.6614 17.2599 50.5752 17.2599H39.1267C38.9864 17.2599 38.8907 17.2344 38.8428 17.1865C38.795 17.1387 38.7695 17.043 38.7695 16.9026V12.6569ZM42.071 6.74603C41.7807 6.74603 41.516 6.79706 41.2863 6.89914C41.0534 7.00122 40.8557 7.14157 40.6866 7.3202C40.5207 7.49884 40.3899 7.70299 40.2974 7.93585C40.2049 8.16871 40.1603 8.41753 40.1603 8.68867C40.1603 9.23733 40.3325 9.69348 40.677 10.0571C41.0215 10.4176 41.4873 10.5994 42.0678 10.5994C42.6197 10.5994 43.0758 10.4176 43.4363 10.0571C43.7999 9.69667 43.9785 9.24052 43.9785 8.68867C43.9785 8.41753 43.9307 8.16871 43.8318 7.93585C43.7361 7.70299 43.599 7.49884 43.4267 7.3202C43.2544 7.14157 43.0503 7.00122 42.8206 6.89914C42.591 6.79706 42.3421 6.74603 42.071 6.74603ZM52.1925 7.84973C52.2786 7.84973 52.3233 7.89438 52.3233 7.97732V8.72375C52.3233 8.80988 52.2786 8.85454 52.1925 8.85454H49.698V12.3028C49.698 12.3889 49.6534 12.4336 49.5672 12.4336H48.6294C48.5433 12.4336 48.4986 12.3921 48.4986 12.3028V4.21964C48.4986 4.13351 48.5433 4.09204 48.6294 4.09204H49.5672C49.6534 4.09204 49.698 4.13351 49.698 4.21964V7.84654H52.1925V7.84973Z" fill="black"/>
<path d="M61.6316 12.6096H66.5376C66.678 12.6096 66.7705 12.632 66.8183 12.683C66.8662 12.7308 66.8917 12.8265 66.8917 12.9669V17.2892C66.8917 17.3753 66.847 17.42 66.7609 17.42H65.8231C65.737 17.42 65.6923 17.3785 65.6923 17.2892V13.809C65.6923 13.7229 65.6796 13.6687 65.6604 13.6463C65.6381 13.624 65.5839 13.6144 65.4977 13.6144H55.1689C55.0828 13.6144 55.0381 13.573 55.0381 13.4868V12.7404C55.0381 12.6543 55.0796 12.6096 55.1689 12.6096H60.4322V11.0402H54.3427C54.2566 11.0402 54.2119 10.9955 54.2119 10.9094V10.163C54.2119 10.0769 54.2534 10.0322 54.3427 10.0322H67.7179C67.804 10.0322 67.8455 10.0769 67.8455 10.163V10.9094C67.8455 10.9955 67.8008 11.0402 67.7179 11.0402H61.6284V12.6096H61.6316ZM55.2359 5.41962C55.1497 5.41962 55.1051 5.37497 55.1051 5.28884V4.54241C55.1051 4.45628 55.1466 4.41162 55.2359 4.41162H66.5376C66.678 4.41162 66.7705 4.43714 66.8183 4.48499C66.8662 4.53284 66.8917 4.62853 66.8917 4.76889V9.05928C66.8917 9.14541 66.847 9.19007 66.7609 9.19007H65.8231C65.737 9.19007 65.6923 9.14541 65.6923 9.05928V5.61421C65.6923 5.52808 65.6796 5.47385 65.6604 5.45152C65.6381 5.42919 65.5839 5.41962 65.4977 5.41962H55.2359Z" fill="black"/>
<path d="M74.3562 4.62534C74.4838 4.46265 74.6146 4.46265 74.7454 4.62534L78.972 10.0162C79.0358 10.0928 79.0262 10.163 78.9369 10.2268L78.2893 10.7276C78.2032 10.8041 78.1266 10.7978 78.0628 10.7116L74.5476 6.16286L70.9749 10.7627C70.9111 10.8488 70.8282 10.8552 70.7325 10.7786L70.1009 10.2746C70.0243 10.2204 70.0211 10.1438 70.0849 10.0481L74.3562 4.62534ZM81.1124 15.0212C81.1124 15.4103 81.0358 15.7804 80.8859 16.1313C80.736 16.4821 80.5222 16.7947 80.2479 17.0691C79.9736 17.3434 79.6418 17.5635 79.2527 17.723C78.8635 17.8857 78.4329 17.9654 77.9576 17.9654C77.4823 17.9654 77.0517 17.8857 76.6625 17.723C76.2733 17.5603 75.9416 17.3434 75.6672 17.0691C75.3929 16.7947 75.176 16.4789 75.0261 16.1313C74.8761 15.7804 74.7996 15.4103 74.7996 15.0212C74.7996 14.6862 74.8602 14.3577 74.9782 14.0323C75.0963 13.7101 75.2685 13.4167 75.4886 13.1583C75.7087 12.8999 75.9799 12.6766 76.2988 12.4948C76.6178 12.313 76.9687 12.1886 77.3579 12.1216V11.8153C77.3579 11.7292 77.4025 11.6846 77.4887 11.6846H78.4297C78.5158 11.6846 78.5605 11.726 78.5605 11.8153V12.1216C78.9464 12.1854 79.3005 12.3098 79.6195 12.4948C79.9385 12.6798 80.2064 12.8999 80.4297 13.1583C80.6498 13.4167 80.8221 13.7101 80.9401 14.0323C81.0518 14.3577 81.1124 14.6862 81.1124 15.0212ZM79.9449 15.0212C79.9449 14.7851 79.897 14.5491 79.8077 14.3162C79.7152 14.0833 79.5876 13.8792 79.4185 13.7006C79.2527 13.5219 79.0421 13.3784 78.7965 13.2699C78.5477 13.1615 78.267 13.1072 77.9544 13.1072C77.6418 13.1072 77.3611 13.1615 77.1123 13.2699C76.8634 13.3784 76.6529 13.5219 76.4807 13.7006C76.3084 13.8792 76.1776 14.0833 76.0915 14.3162C76.0054 14.5491 75.9607 14.7819 75.9607 15.0212C75.9607 15.27 76.0054 15.506 76.0915 15.7325C76.1776 15.959 76.3084 16.1632 76.4807 16.3386C76.6529 16.5172 76.8634 16.6608 77.1123 16.7692C77.3611 16.8777 77.6418 16.9319 77.9544 16.9319C78.267 16.9319 78.5477 16.8777 78.7965 16.7692C79.0453 16.6608 79.2527 16.5172 79.4185 16.3386C79.5844 16.16 79.7152 15.959 79.8077 15.7325C79.897 15.5092 79.9449 15.27 79.9449 15.0212ZM84.5766 7.23466C84.6627 7.23466 84.7074 7.27613 84.7074 7.36226V8.10869C84.7074 8.19482 84.6627 8.23948 84.5766 8.23948H82.0821V11.3815C82.0821 11.4676 82.0374 11.5123 81.9513 11.5123H81.0103C80.9242 11.5123 80.8795 11.4676 80.8795 11.3815V4.20427C80.8795 4.11814 80.9242 4.07349 81.0103 4.07349H81.9513C82.0374 4.07349 82.0821 4.11814 82.0821 4.20427V7.23147H84.5766V7.23466Z" fill="black"/>
<path d="M94.0154 12.6766H99.1479C99.234 12.6766 99.2787 12.7181 99.2787 12.8042V17.2892C99.2787 17.3753 99.234 17.42 99.1479 17.42H87.6835C87.5973 17.42 87.5527 17.3785 87.5527 17.2892V12.8042C87.5527 12.7181 87.5973 12.6766 87.6835 12.6766H92.816V11.3815H86.7265C86.6404 11.3815 86.5957 11.3369 86.5957 11.2507V10.5075C86.5957 10.4214 86.6372 10.3767 86.7265 10.3767H100.102C100.188 10.3767 100.232 10.4182 100.232 10.5075V11.2507C100.232 11.3369 100.188 11.3815 100.102 11.3815H94.0154V12.6766ZM87.5559 9.28896C87.4697 9.28896 87.4251 9.24749 87.4251 9.15817V8.43088C87.4251 8.34475 87.4697 8.30009 87.5559 8.30009H90.3087V5.40049H87.5559C87.4697 5.40049 87.4251 5.35902 87.4251 5.27289V4.54241C87.4251 4.45628 87.4697 4.41162 87.5559 4.41162H99.2787C99.3648 4.41162 99.4095 4.45628 99.4095 4.54241V5.27289C99.4095 5.35902 99.3648 5.40049 99.2787 5.40049H96.5258V8.30009H99.2787C99.3648 8.30009 99.4095 8.34475 99.4095 8.43088V9.15817C99.4095 9.2443 99.3648 9.28896 99.2787 9.28896H87.5559ZM98.0793 13.6782H88.7521V16.4152H98.0793V13.6782ZM91.5049 8.30328H95.3264V5.40368H91.5049V8.30328Z" fill="black"/>
<path d="M112.051 9.95563C112.137 9.95563 112.181 10.0003 112.181 10.0864V10.8329C112.181 10.919 112.14 10.9604 112.051 10.9604H108.086V12.5299C108.086 12.616 108.044 12.6607 107.955 12.6607H107.017C106.931 12.6607 106.886 12.6192 106.886 12.5299V10.9604H102.905C102.819 10.9604 102.774 10.919 102.774 10.8329V10.0864C102.774 10.0003 102.816 9.95563 102.905 9.95563H112.051ZM103.632 5.59825C103.546 5.59825 103.502 5.55678 103.502 5.46747V4.72422C103.502 4.6381 103.543 4.59344 103.632 4.59344H110.838C110.979 4.59344 111.074 4.61896 111.122 4.6668C111.17 4.71465 111.196 4.81035 111.196 4.9507V8.99867C111.196 9.0848 111.151 9.12945 111.065 9.12945H110.127C110.041 9.12945 110 9.0848 110 8.99867V5.79283C110 5.70671 109.987 5.65248 109.968 5.63015C109.945 5.60782 109.891 5.59825 109.805 5.59825H103.632V5.59825ZM103.747 12.6766C103.747 12.5905 103.792 12.5458 103.878 12.5458H104.816C104.902 12.5458 104.944 12.5873 104.944 12.6766V16.0579C104.944 16.144 104.956 16.1982 104.975 16.2206C104.998 16.2429 105.052 16.2525 105.138 16.2525H115.693C115.78 16.2525 115.824 16.2971 115.824 16.3833V17.1297C115.824 17.2158 115.783 17.2605 115.693 17.2605H104.101C103.961 17.2605 103.865 17.235 103.818 17.1871C103.77 17.1393 103.744 17.0436 103.744 16.9032V12.6766H103.747ZM115.792 12.4788C115.792 12.565 115.748 12.6096 115.662 12.6096H114.724C114.638 12.6096 114.593 12.565 114.593 12.4788V8.6095H112.245C112.159 8.6095 112.114 8.56484 112.114 8.47872V7.73547C112.114 7.64935 112.159 7.60469 112.245 7.60469H114.593V4.20427C114.593 4.11814 114.634 4.07349 114.724 4.07349H115.662C115.748 4.07349 115.792 4.11814 115.792 4.20427V12.4788Z" fill="black"/>
<path d="M118.775 6.27777C118.689 6.27777 118.645 6.2363 118.645 6.15017V5.40374C118.645 5.31761 118.686 5.27614 118.775 5.27614H125.914C126.163 5.27614 126.287 5.40055 126.287 5.64617V15.6688C126.287 15.7549 126.246 15.7996 126.157 15.7996H125.219C125.133 15.7996 125.088 15.7581 125.088 15.6688V6.47235C125.088 6.38622 125.079 6.332 125.056 6.30967C125.034 6.28734 124.98 6.27458 124.897 6.27458H118.775V6.27777ZM130.82 4.52971C130.82 4.44358 130.865 4.39893 130.951 4.39893H131.889C131.975 4.39893 132.02 4.44358 132.02 4.52971V16.5939C132.02 16.68 131.978 16.7246 131.889 16.7246H130.951C130.865 16.7246 130.82 16.68 130.82 16.5939V10.7627H127.972C127.886 10.7627 127.841 10.7181 127.841 10.632V9.88872C127.841 9.80259 127.882 9.75793 127.972 9.75793H130.82V4.52971Z" fill="black"/>
<path d="M135.548 6.21397C135.462 6.21397 135.417 6.1725 135.417 6.08637V5.33994C135.417 5.25381 135.458 5.20916 135.548 5.20916H141.344C141.484 5.20916 141.577 5.23149 141.628 5.28252C141.679 5.33037 141.701 5.42607 141.701 5.56642V10.7659C141.701 10.8521 141.66 10.8935 141.573 10.8935H136.62V14.3737C136.62 14.4598 136.629 14.5141 136.651 14.5364C136.674 14.5587 136.728 14.5683 136.814 14.5683H141.832C141.918 14.5683 141.963 14.6129 141.963 14.6991V15.4423C141.963 15.5284 141.918 15.5731 141.832 15.5731H135.777C135.637 15.5731 135.541 15.5476 135.494 15.4997C135.446 15.4487 135.42 15.3562 135.42 15.2158V10.0163C135.42 9.93019 135.462 9.88553 135.551 9.88553H140.505V6.40855C140.505 6.32243 140.492 6.2682 140.473 6.24906C140.451 6.22673 140.396 6.21716 140.313 6.21716H135.548V6.21397ZM147.223 10.9733H145.022V16.6066C145.022 16.6927 144.977 16.7374 144.894 16.7374H143.956C143.87 16.7374 143.826 16.6927 143.826 16.6066V4.52971C143.826 4.44358 143.867 4.39893 143.956 4.39893H144.894C144.98 4.39893 145.022 4.44358 145.022 4.52971V9.96846H147.223V4.52971C147.223 4.44358 147.267 4.39893 147.354 4.39893H148.291C148.378 4.39893 148.419 4.44358 148.419 4.52971V16.6098C148.419 16.6959 148.378 16.7406 148.291 16.7406H147.354C147.267 16.7406 147.223 16.6959 147.223 16.6098V10.9733Z" fill="black"/>
<path d="M158.782 15.4262H164.872C164.958 15.4262 165 15.4709 165 15.557V16.3003C165 16.3864 164.958 16.4311 164.872 16.4311H151.497C151.411 16.4311 151.369 16.3864 151.369 16.3003V15.557C151.369 15.4709 151.411 15.4262 151.497 15.4262H157.586V12.8999C157.586 12.8233 157.628 12.7882 157.717 12.7882H158.655C158.741 12.7882 158.782 12.8265 158.782 12.8999V15.4262ZM151.659 11.4102C151.596 11.3559 151.596 11.2985 151.659 11.2347L158.007 4.88686C158.125 4.76883 158.243 4.76883 158.365 4.88686L164.712 11.2347C164.767 11.2985 164.767 11.3591 164.712 11.4102L164.081 12.0577C164.017 12.1215 163.956 12.1215 163.902 12.0577L158.186 6.27765L152.47 12.0577C152.406 12.1215 152.345 12.1215 152.291 12.0577L151.659 11.4102Z" fill="black"/>
</g>
<defs>
<clipPath id="clip0_693_27290">
<rect width="165" height="32.6102" fill="white"/>
</clipPath>
</defs>
</svg>
