<svg width="24" height="24" viewBox="0 0 24 24" fill="none" xmlns="http://www.w3.org/2000/svg">
<path d="M17.7143 17.7143C18.9767 17.7143 20 16.6909 20 15.4286V13.1429C20 11.8805 18.9767 10.8571 17.7143 10.8571C17.0831 10.8571 16.5714 11.3688 16.5714 12V16.5714C16.5714 17.2026 17.0831 17.7143 17.7143 17.7143ZM17.7143 17.7143C17.7143 18.9767 16.6909 20 15.4286 20H12.5714M20 14.8571V12C20 7.58172 16.4183 4 12 4C7.58172 4 4 7.58172 4 12V14.8571M6.28571 17.7143C6.9169 17.7143 7.42857 17.2026 7.42857 16.5714V12C7.42857 11.3688 6.9169 10.8571 6.28571 10.8571C5.02335 10.8571 4 11.8805 4 13.1429V15.4286C4 16.6909 5.02335 17.7143 6.28571 17.7143Z" stroke="#333333"/>
</svg>
