<svg width="32" height="32" viewBox="0 0 32 32" fill="none" xmlns="http://www.w3.org/2000/svg">
<rect width="32" height="32" rx="6" fill="#56CCF2"/>
<path d="M14.0244 16.0884V22.5H12.7588V17.5474L11.2383 18.0308V17.0332L13.8882 16.0884H14.0244ZM20.4844 21.5112V22.5H16.1074V21.6562L18.1772 19.437C18.3853 19.2056 18.5493 19.002 18.6694 18.8262C18.7896 18.6475 18.876 18.4878 18.9287 18.3472C18.9844 18.2036 19.0122 18.0674 19.0122 17.9385C19.0122 17.7451 18.98 17.5796 18.9155 17.4419C18.8511 17.3013 18.7559 17.1929 18.6299 17.1167C18.5068 17.0405 18.3545 17.0024 18.1729 17.0024C17.9795 17.0024 17.8125 17.0493 17.6719 17.1431C17.5342 17.2368 17.4287 17.3672 17.3555 17.5342C17.2852 17.7012 17.25 17.8901 17.25 18.1011H15.98C15.98 17.7202 16.0708 17.3716 16.2524 17.0552C16.4341 16.7358 16.6904 16.4824 17.0215 16.2949C17.3525 16.1045 17.7451 16.0093 18.1992 16.0093C18.6475 16.0093 19.0254 16.0825 19.333 16.229C19.6436 16.3726 19.8779 16.5806 20.0361 16.853C20.1973 17.1226 20.2778 17.4448 20.2778 17.8198C20.2778 18.0308 20.2441 18.2373 20.1768 18.4395C20.1094 18.6387 20.0127 18.8379 19.8867 19.0371C19.7637 19.2334 19.6143 19.4326 19.4385 19.6348C19.2627 19.8369 19.0679 20.0464 18.854 20.2632L17.7422 21.5112H20.4844Z" fill="white"/>
<path d="M7.61133 10.2222C7.61133 9.39374 8.2829 8.72217 9.11133 8.72217H22.8891C23.7175 8.72217 24.3891 9.39374 24.3891 10.2222V13.2777H7.61133V10.2222Z" stroke="white"/>
<rect x="19.6118" y="6.27778" width="0.555556" height="5" rx="0.277778" fill="#56CCF2" stroke="white" stroke-width="0.555556"/>
<path d="M7.61133 13.1665H24.3891V23.9998C24.3891 24.8283 23.7175 25.4998 22.8891 25.4998H9.11133C8.2829 25.4998 7.61133 24.8283 7.61133 23.9998V13.1665Z" stroke="white"/>
<rect x="11.8344" y="6.27778" width="0.555556" height="5" rx="0.277778" fill="#56CCF2" stroke="white" stroke-width="0.555556"/>
</svg>
