<svg width="13" height="14" viewBox="0 0 13 14" fill="none" xmlns="http://www.w3.org/2000/svg">
<circle cx="6.5" cy="7" r="6.5" fill="#EB5757"/>
<path d="M7.0957 9.0918H6.11719L6.04102 2.96875H7.17773L7.0957 9.0918ZM6 10.9551C6 10.7793 6.05273 10.6328 6.1582 10.5156C6.26758 10.3945 6.42773 10.334 6.63867 10.334C6.84961 10.334 7.00977 10.3945 7.11914 10.5156C7.22852 10.6328 7.2832 10.7793 7.2832 10.9551C7.2832 11.1309 7.22852 11.2773 7.11914 11.3945C7.00977 11.5078 6.84961 11.5645 6.63867 11.5645C6.42773 11.5645 6.26758 11.5078 6.1582 11.3945C6.05273 11.2773 6 11.1309 6 10.9551Z" fill="white"/>
</svg>
