<svg width="102" height="35" viewBox="0 0 102 35" fill="none" xmlns="http://www.w3.org/2000/svg">
<rect y="1" width="90" height="33" rx="16.5" fill="#F2F2F2"/>
<path fill-rule="evenodd" clip-rule="evenodd" d="M84.5 35C94.165 35 102 27.165 102 17.5C102 7.83502 94.165 0 84.5 0C74.835 0 67 7.83502 67 17.5C67 21.538 68.3677 25.2566 70.665 28.2179L69.4117 32.8954L74.1631 31.6223C77.0595 33.7459 80.6333 35 84.5 35Z" fill="#56CCF2"/>
<g clip-path="url(#clip0_83_13068)">
<path d="M90.6363 20.7612C89.6961 20.7612 88.7752 20.6144 87.9024 20.3264C87.4764 20.1796 86.9927 20.2927 86.7127 20.5783L84.9823 21.8851C82.9969 20.8254 81.7262 19.5555 80.6809 17.5845L81.9524 15.895C82.2725 15.5749 82.3872 15.1064 82.25 14.6676C81.9596 13.7892 81.812 12.8675 81.812 11.9289C81.812 11.2655 81.2721 10.7256 80.6087 10.7256H77.801C77.1375 10.7256 76.5977 11.2655 76.5977 11.9289C76.5977 19.6694 82.8958 25.9675 90.6363 25.9675C91.2997 25.9675 91.8396 25.4276 91.8396 24.7642V21.9645C91.8396 21.3011 91.2997 20.7612 90.6363 20.7612Z" fill="white"/>
</g>
<path d="M22.4274 22H27.7674V20.572H26.0994V13.12H24.7914C24.2274 13.468 23.6154 13.696 22.7274 13.864V14.956H24.3354V20.572H22.4274V22ZM29.9538 17.608C30.5898 17.608 31.0578 17.116 31.0578 16.468C31.0578 15.808 30.5898 15.316 29.9538 15.316C29.3298 15.316 28.8618 15.808 28.8618 16.468C28.8618 17.116 29.3298 17.608 29.9538 17.608ZM29.9538 22.168C30.5898 22.168 31.0578 21.664 31.0578 21.016C31.0578 20.368 30.5898 19.864 29.9538 19.864C29.3298 19.864 28.8618 20.368 28.8618 21.016C28.8618 21.664 29.3298 22.168 29.9538 22.168ZM32.3961 22H37.7361V20.572H36.0681V13.12H34.7601C34.1961 13.468 33.5841 13.696 32.6961 13.864V14.956H34.3041V20.572H32.3961V22ZM45.6585 15.316H41.2785V13.684H45.6585V15.316ZM47.2185 12.448H39.7185V16.564H47.2185V12.448ZM41.2305 19.636H39.6465V22.84H47.3865V21.58H41.2305V19.636ZM38.4825 17.44V18.688H42.8385V20.572H44.4225V18.688H48.4905V17.44H38.4825ZM52.5856 12.712C50.8576 12.712 49.5496 13.852 49.5496 15.436C49.5496 17.032 50.8576 18.16 52.5856 18.16C54.3136 18.16 55.6336 17.032 55.6336 15.436C55.6336 13.852 54.3136 12.712 52.5856 12.712ZM52.5856 14.068C53.4376 14.068 54.0856 14.572 54.0856 15.436C54.0856 16.3 53.4376 16.804 52.5856 16.804C51.7336 16.804 51.0856 16.3 51.0856 15.436C51.0856 14.572 51.7336 14.068 52.5856 14.068ZM56.6656 11.968V23.056H58.2496V11.968H56.6656ZM49.2856 20.812C51.1936 20.812 53.7856 20.788 56.1616 20.308L56.0656 19.168C53.7376 19.516 51.0256 19.528 49.0816 19.528L49.2856 20.812Z" fill="#333333"/>
<defs>
<clipPath id="clip0_83_13068">
<rect width="15.2419" height="15.2419" fill="white" transform="translate(76.5977 10.7256)"/>
</clipPath>
</defs>
</svg>
