<svg width="18" height="18" viewBox="0 0 18 18" fill="none" xmlns="http://www.w3.org/2000/svg">
<path fill-rule="evenodd" clip-rule="evenodd" d="M15.0448 8C15.0448 11.8634 11.9034 15 8.0224 15C4.1414 15 1 11.8634 1 8C1 4.13664 4.1414 1 8.0224 1C11.9034 1 15.0448 4.13664 15.0448 8ZM13.695 13.657C12.2432 15.1046 10.2377 16 8.0224 16C3.59175 16 0 12.4183 0 8C0 3.58172 3.59175 0 8.0224 0C12.453 0 16.0448 3.58172 16.0448 8C16.0448 9.84929 15.4156 11.552 14.359 12.9069L17.9987 16.5365L17.2907 17.2426L13.695 13.657Z" fill="#828282"/>
</svg>
